<?xml version="1.0" encoding="UTF-8"?>
<svg id="logo" xmlns="http://www.w3.org/2000/svg" viewBox="0 0 1061.24 638.13">
  <defs>
    <style>
      .cls-1, .cls-2, .cls-3, .cls-4 {
        fill: #fff;
      }

      .cls-2 {
        opacity: .26;
      }

      .cls-5 {
        fill: #196c37;
      }

      .cls-6 {
        fill: #0b3010;
      }

      .cls-7 {
        fill: #ed2e72;
      }

      .cls-8 {
        fill: #ed8cb3;
        opacity: .25;
      }

      .cls-9, .cls-10 {
        fill: #f9d2e4;
      }

      .cls-9, .cls-3 {
        opacity: .13;
      }

      .cls-11 {
        fill: #b52025;
      }

      .cls-12 {
        fill: #f4607c;
      }

      .cls-10 {
        opacity: .41;
      }

      .cls-4 {
        opacity: .28;
      }

      .cls-13 {
        fill: #f772b2;
      }

      .cls-14 {
        fill: #e82147;
      }
    </style>
  </defs>
  <g>
    <path class="cls-14" d="m481.93,190.12c-7.11,5.02-48-4.84-56.82-5.29-45.11-2.32-90.63-.87-135.35,5.66-110.95,16.2-220.53,68-262.97,178.67-18.46,48.15-47.88,195.3,11.61,213.28,27.64,8.36,81.08-7.59,110.24-10.32,36.89-3.45,110.21,61.83,147.1,58.38,73.78-6.9,114.21-38.1,187.99-45,35.19-3.29,60.87-17.85,91.37,0,107.64,63,212.15-22.73,287.38-3.71,10.19,2.58,20.64,5.4,29.06,11.69,11.35,8.47,17.51,22.17,27.43,32.27,59.47,60.55,97.91-190.59,96.77-223.07-5.19-148.73-121.91-231.17-258.05-260.54,0,0-164.39-30.68-275.78,47.98Z"/>
    <path class="cls-11" d="m937.26,638.15c-6.84,0-13.68-3.44-20.41-10.3-4.28-4.36-7.87-9.34-11.34-14.15-4.87-6.76-9.47-13.14-15.75-17.82-7.7-5.74-17.24-8.46-28-11.18-28.9-7.3-63.19,1.49-99.49,10.8-57.36,14.72-122.38,31.39-188.67-7.41-20.89-12.23-39.65-8.49-61.37-4.16-8.9,1.77-18.1,3.61-28.21,4.55-36.55,3.42-65.41,13.05-93.32,22.36-28.24,9.42-57.43,19.16-94.66,22.64-1.06.1-2.14.15-3.24.15-19.11,0-44.87-14.45-72.06-29.71-26.69-14.97-54.29-30.46-71.8-28.82-8.86.83-20.2,2.93-32.2,5.16-27.83,5.17-59.38,11.03-79.19,5.04-11.62-3.51-20.7-11.79-26.98-24.61-13.27-27.09-11.62-69.41-7.89-100.14,4.51-37.22,13.96-73.26,21.33-92.47,20.02-52.23,56.03-94.7,107.01-126.24,43.82-27.1,97.08-45.38,158.32-54.33,42.62-6.23,88.36-8.14,135.94-5.69,2.79.14,8.13,1.09,14.89,2.28,11.7,2.07,36.05,6.37,40.05,3.56,58.14-41.06,130.67-52.05,181.28-54.03,54.73-2.15,96.37,5.48,96.79,5.56,73.1,15.76,135.18,45.58,179.61,86.24,51.21,46.87,78.42,106.46,80.89,177.14.87,24.84-25.32,213.33-72.78,233.71-2.9,1.25-5.81,1.87-8.72,1.87Zm-99.05-62.17c8.63,0,16.98.87,25.01,2.9,11.4,2.88,21.54,5.79,30.12,12.19,7.01,5.23,12.1,12.29,17.03,19.12,3.34,4.63,6.8,9.43,10.75,13.46,7.8,7.94,15.16,10.27,22.49,7.12,17.72-7.61,35.76-46.75,50.8-110.21,12.85-54.23,18.78-105.5,18.35-117.77-4.53-129.71-97.72-223.64-255.68-257.71-.33-.06-41.42-7.58-95.51-5.44-49.75,1.97-121,12.75-177.91,52.93h0c-5.58,3.94-22.72,1.31-44.55-2.55-6.29-1.11-11.73-2.07-14.15-2.2-47.19-2.43-92.53-.54-134.76,5.63-76.29,11.14-211.58,48.92-260.6,176.78-13.65,35.61-36.97,140.23-13.65,187.83,5.52,11.26,13.37,18.5,23.33,21.51,18.41,5.56,49.2-.15,76.36-5.2,12.14-2.25,23.6-4.38,32.73-5.24,19.35-1.81,46.54,13.43,75.3,29.56,26.69,14.97,54.3,30.45,71.8,28.82,36.55-3.42,65.41-13.05,93.32-22.36,28.24-9.42,57.43-19.16,94.66-22.64,9.8-.92,18.85-2.72,27.6-4.46,21.97-4.38,42.71-8.52,65.57,4.86,64.16,37.55,127.91,21.2,184.15,6.77,27.26-6.99,53.42-13.7,77.44-13.7Z"/>
  </g>
  <path class="cls-8" d="m932.69,305.17l-225.53-121.41c-15.77-8.49-6.61-32.56,10.8-28.37,72.89,17.57,172.05,53.72,233.71,126.46,10.91,12.87-4.13,31.31-18.98,23.32Z"/>
  <g>
    <line class="cls-7" x1="498.82" y1="204.02" x2="515.96" y2="233.9"/>
    <rect x="505.39" y="201.74" width="4" height="34.44" transform="translate(-41.67 281.56) rotate(-29.85)"/>
  </g>
  <g>
    <line class="cls-7" x1="197.43" y1="257.21" x2="180.02" y2="287.7"/>
    <rect x="171.17" y="270.45" width="35.11" height="4" transform="translate(-141.45 301.32) rotate(-60.29)"/>
  </g>
  <path class="cls-9" d="m417.85,190.12c-2.93,77.33-20.51,153.1-20.91,230.21-.14,47.41,8.26,89.42,34.03,129.88,5.44,8.91,11.37,16.89,17.77,26.29-41.13-1.95-79.78-28.23-101.84-62.89-17.41-26.59-26.57-58.33-28.92-89.75-4.34-59.01,12.6-118.47,43.1-168.55,15.34-24.56,33.34-47.64,56.77-65.19h0Z"/>
  <g>
    <path class="cls-1" d="m608.26,348.33c0,25.38-4.97,48.89-13.45,68.15,0,0-11.8-7.33-33.38-5.64,3.57-38.79-26.81-62.51-26.81-62.51,46.12-41.66,0-118.27,0-118.27,40.67,0,73.64,52.95,73.64,118.27Z"/>
    <path d="m595.49,418.67l-1.47-.91c-.11-.07-11.71-7.04-32.47-5.42l-1.77.14.16-1.77c3.45-37.54-25.95-60.96-26.24-61.19l-1.41-1.1,1.32-1.2c18.69-16.88,24.35-41.54,16.84-73.3-5.65-23.86-17-42.89-17.12-43.08l-1.37-2.27h2.65c41.43,0,75.14,53.73,75.14,119.77,0,24.79-4.69,48.56-13.57,68.76l-.7,1.58Zm-27.63-9.58c13.91,0,22.84,3.62,26.23,5.3,8.29-19.49,12.67-42.29,12.67-66.06,0-62.97-30.96-114.45-69.53-116.69,3.23,5.89,11.55,22.19,16.14,41.59,7.51,31.72,1.8,57.63-16.5,75.05,5.8,5.15,28.42,27.5,26.19,60.94,1.66-.1,3.26-.14,4.8-.14Z"/>
  </g>
  <g>
    <path d="m561.43,410.84c-30.08-.57-56.01,11.15-76.19,25.24-14.9-21.64-24.27-52.94-24.27-87.76,0-65.32,32.97-118.27,73.64-118.27,0,0,46.12,76.61,0,118.27,0,0,30.38,23.72,26.81,62.51Z"/>
    <path d="m485.12,436.78l-.29-.41c-15.48-22.48-24.36-54.57-24.36-88.04,0-65.49,33.26-118.77,74.14-118.77h.28l.15.24c.12.19,11.63,19.5,17.35,43.65,5.26,22.22,6.54,53.19-17.02,74.85,3.8,3.2,29.86,26.58,26.55,62.58l-.04.46h-.46c-25.74-.5-51.3,7.96-75.89,25.15l-.41.29Zm49.22-206.22c-40.2.25-72.86,52.98-72.86,117.77,0,33.07,8.7,64.76,23.9,87.06,24.5-17.01,49.91-25.44,75.6-25.05,3.22-37.81-26.36-61.38-26.66-61.61l-.47-.37.44-.4c23.64-21.35,22.37-52.17,17.14-74.27-5.33-22.54-15.75-40.82-17.09-43.13Z"/>
  </g>
  <g>
    <path class="cls-1" d="m234.25,401.8c0,25.38-4.97,48.89-13.45,68.15,0,0-11.8-7.33-33.38-5.64,3.57-38.79-26.81-62.51-26.81-62.51,46.12-41.66,0-118.27,0-118.27,40.67,0,73.64,52.95,73.64,118.27Z"/>
    <path d="m221.48,472.14l-1.47-.91c-.11-.07-11.71-7.05-32.47-5.42l-1.77.14.16-1.77c3.45-37.54-25.95-60.96-26.24-61.19l-1.41-1.1,1.32-1.2c18.69-16.88,24.35-41.54,16.84-73.3-5.65-23.86-17-42.89-17.12-43.08l-1.37-2.27h2.65c41.43,0,75.14,53.73,75.14,119.77,0,24.79-4.69,48.56-13.57,68.76l-.7,1.58Zm-27.63-9.58c13.91,0,22.84,3.62,26.23,5.3,8.29-19.49,12.67-42.29,12.67-66.06,0-62.97-30.96-114.45-69.53-116.69,3.23,5.89,11.55,22.19,16.14,41.59,7.51,31.72,1.8,57.63-16.5,75.05,5.8,5.15,28.42,27.5,26.19,60.94,1.66-.1,3.26-.14,4.8-.14Z"/>
  </g>
  <g>
    <path d="m187.42,464.31c-30.08-.57-56.01,11.15-76.19,25.24-14.9-21.64-24.27-52.94-24.27-87.76,0-65.32,32.97-118.27,73.64-118.27,0,0,46.12,76.61,0,118.27,0,0,30.38,23.72,26.81,62.51Z"/>
    <path d="m111.1,490.26l-.29-.41c-15.48-22.48-24.36-54.57-24.36-88.04,0-65.49,33.26-118.77,74.14-118.77h.28l.15.24c.12.19,11.63,19.5,17.35,43.65,5.26,22.22,6.54,53.19-17.02,74.85,3.8,3.2,29.86,26.58,26.55,62.58l-.04.46h-.46c-25.73-.5-51.3,7.96-75.89,25.15l-.41.29Zm49.22-206.22c-40.2.25-72.86,52.98-72.86,117.77,0,33.07,8.7,64.76,23.9,87.06,24.5-17.01,49.94-25.44,75.6-25.05,3.22-37.81-26.36-61.38-26.66-61.61l-.47-.37.44-.4c23.64-21.35,22.37-52.17,17.14-74.27-5.33-22.54-15.75-40.82-17.09-43.13Z"/>
  </g>
  <g>
    <circle class="cls-13" cx="106.63" cy="564.89" r="35.33"/>
    <path class="cls-12" d="m106.63,601.71c-9.43,0-18.87-3.59-26.05-10.77-14.36-14.36-14.36-37.73,0-52.09,14.36-14.36,37.73-14.36,52.09,0,6.96,6.96,10.79,16.21,10.79,26.05s-3.83,19.09-10.79,26.05h0c-7.18,7.18-16.61,10.77-26.04,10.77Zm0-70.63c-8.67,0-17.33,3.3-23.92,9.89s-9.91,14.89-9.91,23.92,3.52,17.53,9.91,23.92c13.19,13.19,34.66,13.19,47.85,0l1.06,1.06-1.06-1.06c13.19-13.19,13.19-34.66,0-47.85-6.6-6.6-15.26-9.89-23.92-9.89Z"/>
  </g>
  <g>
    <circle class="cls-13" cx="646.96" cy="532.48" r="35.33"/>
    <path class="cls-12" d="m646.98,569.33c-4.37,0-8.75-.79-12.96-2.37-9.21-3.46-16.53-10.3-20.59-19.25-8.4-18.49-.19-40.37,18.31-48.77,8.96-4.07,18.96-4.4,28.17-.95,9.21,3.46,16.53,10.3,20.59,19.25,8.4,18.49.19,40.37-18.31,48.77-4.86,2.21-10.03,3.32-15.21,3.32Zm-.03-70.71c-4.76,0-9.51,1.02-13.97,3.05-16.99,7.71-24.53,27.81-16.81,44.8,3.74,8.23,10.45,14.51,18.92,17.69,8.46,3.18,17.65,2.87,25.88-.87,16.99-7.71,24.53-27.81,16.81-44.8-3.74-8.23-10.45-14.51-18.92-17.69-3.87-1.45-7.89-2.18-11.91-2.18Z"/>
  </g>
  <rect x="558.67" y="222.96" width="47.08" height="4" transform="translate(115.88 639.82) rotate(-62.78)"/>
  <rect x="543.43" y="196.42" width="4" height="34.5"/>
  <path class="cls-3" d="m96.51,529.9c-12.73,19.91-19.69,34.32-12.69,58.11-2.12-1.88-4-4.08-5.49-6.55-11.41-18.14-.33-43.19,18.18-51.56h0Z"/>
  <path class="cls-3" d="m635.37,500.85c-12.73,19.91-19.69,34.32-12.69,58.11-2.12-1.88-4-4.08-5.49-6.55-11.41-18.14-.33-43.19,18.18-51.56h0Z"/>
  <path class="cls-10" d="m646.96,167.76c55.18-6.29,115.35,3.43,166.42,25.22,73.56,31.41,127.48,91.35,140.06,171.59.23,2.01,1.22,8.49,1.43,10.57.28,2.6.69,8.01.94,10.59,0,0,.3,7.06.3,7.06.42,9.38.05,18.76-.7,28.1-1.81-9.1-3.43-18.26-5.66-27.25-3.57-15.42-8.4-30.92-14.21-45.62-20.57-52.32-59.04-94.82-107.56-122.64-55.31-32.03-118.01-48.3-181.01-57.62h0Z"/>
  <g>
    <path class="cls-5" d="m1045.4,79.5c-25.04-41.96-113.23,0-113.23,0-40.41-39.69-140.43-94.62-226.46-74.83-99.7,22.93-173.3-6.06-239.35,163.71-2.39,6.15,3.04,12.49,9.49,11.09,2.16-.47,4.04-1.78,5.23-3.65,11.47-18.06,73.7-114.15,101.12-116.85,30.27-2.98,115.8-59.27,273.27,10.41,0,0,30.35,12.14,44.08,23.62,4,3.34,3.96,9.5-.08,12.79l-11.56,9.41c-1.46,1.19-12.17,5.52-13.6,6.75-16.61,14.3-11.78,54.48,36.13,69.91,3.94,1.27,8.19-1.23,9.63-5.11,3.06-8.29,5.43-24.59-9.11-46.35-1.78-2.66-1.88-6.1-.25-8.85,2.39-4.01,6.29-10.15,11.33-16.7,100.81,110.43,135.25,30.66,135.25,30.66,0,0,13.15-24.05-11.9-66Zm-42.15,65.75c-13.14-3.96-37.07-8.93-54.98-45.37-1.06-2.17-2.5-4.51-4.29-6.97,12.33-8.71,26.74-12.72,41.43-3.45,39.67,25.05,30.99,59.76,17.84,55.79Z"/>
    <path class="cls-6" d="m912.56,192.69c-.76,0-1.52-.11-2.27-.35-34.65-11.16-42.58-33.06-44.38-41.96-2.32-11.48.77-22.52,8.07-28.8.79-.68,3.87-2.08,7.13-3.57,2.73-1.24,5.82-2.65,6.48-3.19l11.56-9.41c1.81-1.47,2.86-3.66,2.87-5.99.02-2.33-1-4.53-2.8-6.03-13.51-11.29-43.64-23.41-43.95-23.53-127.08-56.23-206.56-30.54-249.26-16.74-10,3.23-17.9,5.79-23.77,6.36-27.09,2.66-88.68,97.61-100.75,116.62-1.27,1.99-3.24,3.37-5.55,3.87-3.21.7-6.41-.38-8.55-2.88-2.13-2.5-2.7-5.82-1.51-8.88C519.17,31.25,576.98,23.43,650.16,13.52c17.71-2.4,36.02-4.88,55.43-9.34,48.46-11.15,97.78,2.08,130.63,15.13,43.61,17.33,78.15,42.09,96.04,59.59,2.8-1.3,23.7-10.77,47.02-15.62,33.17-6.91,56.18-1.39,66.54,15.97h0c24.91,41.71,12.04,66.25,11.91,66.5-.08.19-10.33,23.3-35.17,27.47-27.48,4.61-61.29-14.77-100.49-57.59-4.85,6.35-8.61,12.28-10.94,16.18-1.52,2.56-1.43,5.83.23,8.32,14.82,22.2,12.1,38.85,9.16,46.8-1.3,3.51-4.6,5.77-7.98,5.77Zm-205.86-158.59c39.9,0,89.18,8.36,148.97,34.82.29.11,30.57,12.3,44.2,23.69,2.02,1.69,3.17,4.17,3.16,6.8-.02,2.63-1.2,5.09-3.24,6.76l-11.56,9.41c-.76.62-3.65,1.93-6.7,3.33-2.91,1.33-6.22,2.83-6.89,3.42-7.03,6.05-10,16.72-7.74,27.85,1.76,8.73,9.56,30.21,43.7,41.21,3.56,1.15,7.6-1.01,9.01-4.81,2.87-7.77,5.52-24.07-9.06-45.9-1.88-2.81-1.98-6.5-.26-9.39,2.39-4.02,6.31-10.18,11.37-16.75l.36-.47.4.44c39.12,42.86,72.76,62.28,99.98,57.72,24.3-4.07,34.35-26.69,34.45-26.92.15-.28,12.71-24.37-11.87-65.55h0c-24.52-41.09-111.71-.22-112.59.2l-.32.15-.25-.25c-43.4-42.62-142.2-93.98-225.99-74.7-19.46,4.48-37.8,6.96-55.53,9.36-72.86,9.86-130.4,17.65-183.47,154.05-1.05,2.71-.55,5.65,1.34,7.86,1.9,2.22,4.74,3.17,7.58,2.56,2.05-.45,3.79-1.66,4.92-3.43,12.11-19.08,73.94-114.37,101.5-117.08,5.76-.57,13.61-3.1,23.56-6.32,22.73-7.35,55.86-18.05,100.99-18.05Zm298.58,111.96c-.71,0-1.44-.11-2.18-.33h0c-.79-.24-1.63-.48-2.5-.74-13.41-3.91-35.86-10.46-52.79-44.89-1.05-2.14-2.48-4.46-4.24-6.9l-.3-.41.41-.29c14.86-10.5,28.98-11.66,41.98-3.46,28.67,18.1,32,40.93,27.38,51.07-1.74,3.81-4.6,5.95-7.76,5.95Zm-60.6-53.03c1.67,2.33,3.02,4.56,4.04,6.63,16.73,34.04,38.91,40.51,52.17,44.37.87.25,1.71.5,2.51.74h0c3.54,1.07,6.8-.83,8.74-5.08,4.49-9.83,1.13-32.05-27-49.81-12.5-7.89-26.11-6.83-40.46,3.14Z"/>
  </g>
  <path class="cls-2" d="m473.66,169.24c-2.35-11.65,4.97-28.36,9.76-38.97,14.23-29.51,41.1-67.76,69.49-84.67,2.99-1.59,6.26-3.13,9.67-3.29-5.82,3.03-9.92,8.36-14.18,13.19-20.42,25.28-38.77,52.28-56.76,79.33-3.55,5.45-7.01,10.95-10.25,16.57-3.12,5.67-6.58,11.36-7.72,17.83h0Z"/>
  <path class="cls-4" d="m108.74,377.82c-2.04,31.41.94,55.57,16.37,83.41-25.72-17.73-31.73-57.09-16.37-83.41h0Z"/>
  <path class="cls-4" d="m473.35,333.08c-2.04,31.41.94,55.57,16.37,83.41-25.72-17.73-31.73-57.09-16.37-83.41h0Z"/>
  <g>
    <line class="cls-7" x1="112.41" y1="265.49" x2="129.55" y2="295.36"/>
    <rect x="118.98" y="263.2" width="4" height="34.44" transform="translate(-123.51 97.4) rotate(-29.85)"/>
  </g>
  <rect x="156.71" y="250.05" width="4" height="34.5"/>
</svg>