<?xml version="1.0" encoding="UTF-8"?>
<svg id="Layer_1" data-name="Layer 1" xmlns="http://www.w3.org/2000/svg" viewBox="0 0 144.59 130.48">
  <defs>
    <style>
      .cls-1, .cls-2, .cls-3, .cls-4 {
        fill: #fff;
      }

      .cls-5 {
        fill: #e62448;
      }

      .cls-6 {
        opacity: .41;
      }

      .cls-6, .cls-7 {
        fill: #f9d2e3;
      }

      .cls-2 {
        opacity: .26;
      }

      .cls-8 {
        fill: #f072ab;
      }

      .cls-9 {
        fill: #163019;
      }

      .cls-10 {
        fill: #b42126;
      }

      .cls-11 {
        fill: #ed2e72;
      }

      .cls-7, .cls-3 {
        opacity: .13;
      }

      .cls-12 {
        fill: #ec8cb2;
        opacity: .25;
      }

      .cls-4 {
        opacity: .28;
      }

      .cls-13 {
        fill: #f0607c;
      }

      .cls-14 {
        fill: #186d38;
      }
    </style>
  </defs>
  <g id="chucklin_cherry.svg">
    <g>
      <path class="cls-5" d="m65.54,25.98S-10.87,13.81,2.29,81.2c0,0,11.71,34.23,55.22,46.62,43.51,12.4,72.33-40.16,72.33-40.16,0,0,31.49-55.68-26.7-68.23,0,0-22.41-4.18-37.6,6.54Z"/>
      <path class="cls-10" d="m70.76,130.48c-4.48,0-8.98-.64-13.47-1.92-10-2.85-19.16-7.1-27.21-12.62-6.44-4.42-12.2-9.67-17.1-15.59-8.36-10.1-11.31-18.55-11.43-18.9l-.03-.1c-3.66-18.76-.76-33.2,8.63-42.93,9.55-9.89,24.15-12.94,34.71-13.77,10.23-.8,18.77.29,20.47.53,7.95-5.5,17.78-6.99,24.65-7.26,7.5-.29,13.04.72,13.27.76,16.72,3.61,27.72,11.1,32.74,22.28,4.84,10.78,3.07,23.01.74,31.38-2.51,9.03-6.22,15.63-6.26,15.69-.07.12-7.41,13.37-20,24.92-7.42,6.8-15.18,11.69-23.08,14.54-5.5,1.98-11.07,2.98-16.66,2.98ZM3.02,81c.25.69,3.3,8.92,11.19,18.43,7.56,9.12,21.25,21.32,43.5,27.66,22.12,6.3,40.34-4.8,51.73-15.23,12.42-11.37,19.66-24.43,19.73-24.56.04-.07,3.67-6.54,6.13-15.4,2.26-8.12,3.97-19.97-.67-30.32-4.81-10.71-15.45-17.91-31.64-21.4-.2-.04-22.26-3.99-37,6.42l-.25.18-.31-.05c-.09-.01-9.24-1.44-20.46-.56-10.29.81-24.49,3.77-33.7,13.31C2.25,48.82-.52,62.79,3.02,81Z"/>
    </g>
    <path class="cls-12" d="m127,41.67l-30.75-16.55c-2.15-1.16-.9-4.44,1.47-3.87,9.94,2.4,23.46,7.32,31.86,17.24,1.49,1.75-.56,4.27-2.59,3.18Z"/>
    <path class="cls-12" d="m114.05,99.94c-6.15,8.16-16.05,18.6-28.5,22.37"/>
    <g>
      <line class="cls-11" x1="67.84" y1="27.88" x2="70.18" y2="31.95"/>
      <rect x="68.5" y="27.57" width="1.02" height="4.7" transform="translate(-5.73 38.31) rotate(-29.85)"/>
    </g>
    <g>
      <line class="cls-11" x1="26.75" y1="35.13" x2="24.38" y2="39.28"/>
      <rect x="23.18" y="36.7" width="4.79" height="1.02" transform="translate(-19.42 40.96) rotate(-60.27)"/>
    </g>
    <path class="cls-7" d="m65.54,25.98c-.75,9.76-2.38,19.57-3.76,29.21-1.86,12.96-3.8,25.99-2.83,38.97.35,4.13,1.01,8.22,2.15,12.22,1.31,4.49,3.2,8.71,5.63,12.79,1.88,3.09,4.04,6.1,6.28,8.96.24.3.94,1.23,1.19,1.59-.34-.01-.66-.05-1-.07-.93-.09-2.05-.21-2.97-.41-13.09-2.48-23.37-12.46-28.14-24.67-7.75-19.98-2.71-43.23,8.19-61.03,4.14-6.6,8.99-12.81,15.26-17.55h0Z"/>
    <g>
      <path class="cls-1" d="m32.61,86.1c10.18,2.85,21.45,6.4,38-6.11,0,0,11.59-6.11,10.46,5.5-1.55,15.8-41.22,22.36-52.38,10.32-.12-.13-.3-.2-.44-.29-4.94-3.32-1.37-11.02,4.36-9.41Z"/>
      <g>
        <line class="cls-5" x1="30.93" y1="84.95" x2="26.69" y2="95.44"/>
        <rect class="cls-10" x="23.15" y="89.43" width="11.31" height="1.53" transform="translate(-65.61 83.11) rotate(-67.99)"/>
      </g>
      <g>
        <line class="cls-5" x1="42.19" y1="87.57" x2="37.5" y2="101.02"/>
        <rect class="cls-10" x="32.72" y="93.53" width="14.24" height="1.53" transform="translate(-62.32 100.86) rotate(-70.77)"/>
      </g>
      <g>
        <line class="cls-5" x1="65.71" y1="82.76" x2="70.88" y2="97.63"/>
        <rect class="cls-10" x="67.53" y="82.32" width="1.53" height="15.75" transform="translate(-25.82 27.41) rotate(-19.16)"/>
      </g>
      <g>
        <line class="cls-5" x1="71.98" y1="78.35" x2="81.43" y2="89.38"/>
        <rect class="cls-10" x="75.94" y="76.6" width="1.53" height="14.53" transform="translate(-36.11 70.08) rotate(-40.59)"/>
      </g>
      <g>
        <line class="cls-5" x1="48.79" y1="87.88" x2="47.73" y2="102.14"/>
        <rect class="cls-10" x="41.11" y="94.25" width="14.31" height="1.53" transform="translate(-50.06 136.12) rotate(-85.76)"/>
      </g>
      <g>
        <line class="cls-5" x1="55.25" y1="86.91" x2="60.18" y2="100.88"/>
        <rect class="cls-10" x="56.95" y="86.48" width="1.53" height="14.83" transform="translate(-27.96 24.57) rotate(-19.44)"/>
      </g>
      <path class="cls-5" d="m47.91,103.82c-9.1,0-17.63-2.16-22.35-7.16-.1-.05-.19-.11-.28-.17-3.57-2.4-3.85-6.32-2.55-9.14,1.54-3.34,5.09-4.99,8.63-4l.74.21c10.83,3.04,22.04,6.18,38.86-6.54l.11-.08.12-.06c.7-.37,6.99-3.54,10.98-.86,2.22,1.49,3.14,4.33,2.74,8.43-.66,6.77-7.11,12.69-17.69,16.25-5.92,1.99-12.77,3.12-19.31,3.12Zm-18.64-17.45c-1.77,0-2.98,1.18-3.52,2.37-.66,1.43-.69,3.6,1.39,5,0,0,.03.02.05.03.17.09.45.25.72.54,3.12,3.37,8.96,5.52,16.44,6.05,7.1.5,15.06-.52,21.83-2.8,9.29-3.13,14.92-8.03,15.45-13.44.19-1.92.12-4.41-1.28-5.35-1.95-1.31-6.03.25-7.48.98-10.04,7.56-18.36,9.84-25.67,9.84-5.85,0-11.06-1.46-15.97-2.84l-.74-.21c-.43-.12-.83-.17-1.21-.17Z"/>
    </g>
    <g>
      <path class="cls-1" d="m82.77,47.55c0,3.46-.68,6.66-1.83,9.29,0,0-1.61-1-4.55-.77.49-5.29-3.66-8.52-3.66-8.52,6.29-5.68,0-16.12,0-16.12,5.54,0,10.04,7.22,10.04,16.12Z"/>
      <path d="m81.11,57.4l-.37-.23s-1.56-.93-4.32-.71l-.45.04.04-.45c.46-5.01-3.47-8.16-3.51-8.19l-.36-.28.34-.3c5.98-5.4-.01-15.54-.07-15.64l-.35-.58h.68c5.75,0,10.42,7.4,10.42,16.51,0,3.4-.65,6.67-1.87,9.45l-.18.4Zm-3.85-1.74c1.73,0,2.91.41,3.49.66,1.08-2.6,1.64-5.62,1.64-8.77,0-8.31-3.98-15.14-8.99-15.7,1.21,2.32,4.99,10.64-.1,15.69.98.89,3.7,3.78,3.5,8.13.16,0,.31,0,.46,0Z"/>
    </g>
    <g>
      <path d="m76.38,56.07c-4.1-.08-7.64,1.52-10.39,3.44-2.03-2.95-3.31-7.22-3.31-11.96,0-8.9,4.5-16.12,10.04-16.12,0,0,6.29,10.44,0,16.12,0,0,4.14,3.23,3.66,8.52Z"/>
      <path d="m65.96,59.69l-.07-.11c-2.12-3.07-3.33-7.46-3.33-12.04,0-8.96,4.56-16.25,10.17-16.25h.07l.04.06c.06.1,6.2,10.48.08,16.19.67.58,4.03,3.74,3.59,8.54v.12s-.13,0-.13,0c-3.5-.07-6.97,1.08-10.31,3.42l-.11.07Zm6.69-28.14c-5.43.06-9.84,7.21-9.84,16,0,4.47,1.17,8.76,3.21,11.79,3.32-2.29,6.76-3.43,10.24-3.39.4-5.09-3.58-8.26-3.62-8.29l-.12-.09.11-.1c5.89-5.32.51-15.03.01-15.9Z"/>
    </g>
    <g>
      <path class="cls-1" d="m31.77,54.84c0,3.46-.68,6.66-1.83,9.29,0,0-1.61-1-4.55-.77.49-5.29-3.66-8.52-3.66-8.52,6.29-5.68,0-16.12,0-16.12,5.54,0,10.04,7.22,10.04,16.12Z"/>
      <path d="m30.11,64.69l-.37-.23s-1.56-.93-4.32-.71l-.45.04.04-.45c.46-5.01-3.47-8.16-3.51-8.19l-.36-.28.34-.3c5.98-5.4-.01-15.54-.07-15.64l-.35-.58h.68c5.75,0,10.42,7.4,10.42,16.51,0,3.4-.65,6.67-1.87,9.45l-.18.4Zm-3.85-1.74c1.73,0,2.91.41,3.49.66,1.08-2.6,1.64-5.62,1.64-8.77,0-8.31-3.98-15.14-8.99-15.7,1.21,2.32,4.99,10.64-.1,15.69.98.89,3.7,3.78,3.5,8.13.16,0,.31,0,.46,0Z"/>
    </g>
    <g>
      <path d="m25.39,63.36c-4.1-.08-7.64,1.52-10.39,3.44-2.03-2.95-3.31-7.22-3.31-11.96,0-8.9,4.5-16.12,10.04-16.12,0,0,6.29,10.44,0,16.12,0,0,4.14,3.23,3.66,8.52Z"/>
      <path d="m14.97,66.98l-.07-.11c-2.12-3.07-3.33-7.46-3.33-12.04,0-8.96,4.56-16.25,10.17-16.25h.07l.04.06c.06.1,6.2,10.48.08,16.19.67.58,4.03,3.74,3.59,8.54v.12s-.13,0-.13,0c-3.5-.07-6.97,1.08-10.31,3.42l-.11.07Zm6.69-28.14c-5.43.06-9.84,7.21-9.84,16,0,4.47,1.17,8.76,3.21,11.79,3.32-2.29,6.77-3.43,10.24-3.39.4-5.09-3.58-8.26-3.62-8.29l-.12-.09.11-.1c5.89-5.32.51-15.03.01-15.9Z"/>
    </g>
    <g>
      <circle class="cls-8" cx="14.38" cy="77.08" r="4.82"/>
      <path class="cls-13" d="m14.38,82.27c-1.39,0-2.69-.54-3.68-1.52s-1.52-2.29-1.52-3.68.54-2.69,1.52-3.68c.98-.98,2.29-1.52,3.68-1.52s2.69.54,3.68,1.52c.98.98,1.52,2.29,1.52,3.68s-.54,2.69-1.52,3.68h0c-.98.98-2.29,1.52-3.68,1.52Zm0-9.63c-1.18,0-2.3.46-3.14,1.3-.84.84-1.3,1.95-1.3,3.14s.46,2.3,1.3,3.14c.84.84,1.95,1.3,3.14,1.3s2.3-.46,3.14-1.3h0c.84-.84,1.3-1.95,1.3-3.14s-.46-2.3-1.3-3.14-1.95-1.3-3.14-1.3Z"/>
    </g>
    <g>
      <circle class="cls-8" cx="88.04" cy="72.66" r="4.82"/>
      <path class="cls-13" d="m88.04,77.86c-.62,0-1.23-.11-1.83-.33-1.3-.49-2.33-1.45-2.91-2.72s-.62-2.68-.13-3.98,1.45-2.33,2.72-2.91c1.26-.57,2.68-.62,3.98-.13,1.3.49,2.33,1.45,2.91,2.72.57,1.26.62,2.68.13,3.98s-1.45,2.33-2.72,2.91c-.69.31-1.42.47-2.15.47Zm0-9.64c-.62,0-1.25.13-1.83.4-1.08.49-1.9,1.37-2.32,2.48-.42,1.11-.38,2.31.11,3.39.49,1.08,1.37,1.9,2.48,2.32,1.11.42,2.31.38,3.39-.11h0c1.08-.49,1.9-1.37,2.32-2.48.42-1.11.38-2.31-.11-3.39s-1.37-1.9-2.48-2.32c-.51-.19-1.03-.29-1.56-.29Z"/>
    </g>
    <rect x="76" y="30.22" width="6.42" height="1.02" transform="translate(15.66 87.13) rotate(-62.79)"/>
    <rect x="73.69" y="26.84" width="1.02" height="4.7"/>
    <path class="cls-3" d="m13,72.3c-.71,2.01-1.6,3.64-1.74,5.73-.05.64-.01,1.34.01,2.19-3.31-1.96-1.76-7.18,1.73-7.92h0Z"/>
    <path class="cls-3" d="m86.46,68.34c-.71,2.01-1.6,3.64-1.74,5.73-.05.64-.01,1.34.01,2.19-3.31-1.96-1.76-7.18,1.73-7.92h0Z"/>
    <path class="cls-6" d="m88.04,22.93c7.53-1.7,16.1-.64,23.23,2.26,10.36,4.19,18.16,13.06,19.21,24.42.17,1.96.16,3.95-.07,5.9-.08.65-.19,1.29-.31,1.93-.21-.62-.37-1.24-.57-1.85-.37-1.19-.76-2.42-1.19-3.59-6.36-18.61-22.71-24.56-40.29-29.07h0Z"/>
    <g>
      <path class="cls-14" d="m142.36,10.9c-3.41-5.72-15.44,0-15.44,0-5.51-5.41-19.15-12.9-30.87-10.2-13.59,3.13-23.63-.83-32.63,22.32-.33.84.41,1.7,1.29,1.51.29-.06.55-.24.71-.5,1.56-2.46,10.05-15.56,13.79-15.93,4.13-.41,15.79-8.08,37.26,1.42,0,0,4.14,1.66,6.01,3.22.55.46.54,1.29-.01,1.74l-1.58,1.28c-.2.16-1.66.75-1.85.92-2.26,1.95-1.61,7.43,4.93,9.53.54.17,1.12-.17,1.31-.7.42-1.13.74-3.35-1.24-6.32-.24-.36-.26-.83-.03-1.21.33-.55.86-1.38,1.54-2.28,13.74,15.06,18.44,4.18,18.44,4.18,0,0,1.79-3.28-1.62-9Zm-5.75,8.96c-1.79-.54-5.05-1.22-7.5-6.19-.14-.3-.34-.61-.58-.95,1.68-1.19,3.65-1.73,5.65-.47,5.41,3.41,4.23,8.15,2.43,7.61Z"/>
      <path class="cls-9" d="m124.25,26.39c-.11,0-.22-.02-.33-.05-4.75-1.53-5.84-4.54-6.09-5.77-.32-1.59.11-3.11,1.12-3.98.11-.09.44-.25.99-.5.35-.16.79-.36.87-.43l1.58-1.28c.23-.19.37-.47.37-.77,0-.3-.13-.58-.36-.78-1.83-1.53-5.93-3.18-5.98-3.2-17.31-7.66-28.13-4.16-33.94-2.28-1.37.44-2.45.79-3.25.87-3.67.36-12.05,13.28-13.69,15.87-.18.29-.46.48-.79.55-.46.1-.92-.05-1.22-.41-.31-.36-.39-.83-.22-1.27,7.28-18.7,15.17-19.77,25.17-21.12,2.41-.33,4.91-.66,7.55-1.27,11.46-2.64,24.95,4.34,30.93,10.17,1.15-.53,12.2-5.48,15.52.09h0c3.41,5.72,1.7,8.99,1.63,9.12,0,.02-1.42,3.2-4.84,3.77-3.76.63-8.37-2-13.71-7.82-.64.84-1.14,1.63-1.44,2.14-.2.33-.18.75.03,1.07,2.04,3.05,1.66,5.34,1.26,6.43-.19.5-.66.83-1.14.83Zm-28.07-21.74c5.45,0,12.17,1.14,20.33,4.75.17.07,4.17,1.68,6.04,3.24.29.24.45.6.45.97,0,.38-.17.73-.46.97l-1.58,1.28c-.1.08-.42.23-.93.46-.37.17-.84.38-.93.46-.94.81-1.34,2.24-1.04,3.74.24,1.18,1.29,4.08,5.92,5.57.46.15.97-.13,1.15-.62.39-1.05.74-3.25-1.23-6.2-.27-.4-.28-.93-.04-1.34.33-.55.86-1.39,1.55-2.29l.09-.12.1.11c5.32,5.83,9.89,8.47,13.58,7.85,3.28-.55,4.64-3.6,4.65-3.64.02-.04,1.72-3.3-1.61-8.88h0c-3.32-5.56-15.15,0-15.27.05l-.08.04-.06-.06c-5.91-5.8-19.36-12.79-30.76-10.17-2.66.61-5.16.95-7.58,1.28-9.91,1.34-17.74,2.4-24.97,20.96-.14.35-.07.73.17,1.01.24.29.61.41.98.33.26-.06.49-.21.63-.44,1.65-2.6,10.1-15.62,13.88-15.99.78-.08,1.85-.42,3.2-.86,3.1-1,7.63-2.46,13.79-2.46Zm40.71,15.38c-.1,0-.21-.02-.32-.05h0c-.11-.03-.22-.07-.34-.1-1.84-.54-4.91-1.43-7.23-6.15-.14-.29-.33-.6-.57-.93l-.08-.1.11-.07c2.05-1.45,4-1.61,5.79-.47,3.94,2.49,4.39,5.64,3.75,7.04-.25.54-.66.85-1.11.85Zm-8.18-7.28c.21.3.39.59.52.86,2.27,4.62,5.28,5.49,7.08,6.02.12.03.23.07.34.1h0c.45.14.87-.11,1.12-.66.6-1.32.14-4.31-3.66-6.72-1.67-1.05-3.48-.92-5.4.39Z"/>
    </g>
    <path class="cls-2" d="m64.42,23.13c-.35-.91-.17-1.95,0-2.88.2-.94.5-1.83.84-2.7,1.44-3.44,3.57-6.51,6.31-9.04,1.32-1.14,2.82-2.38,4.6-2.68.12-.01.25,0,.37,0-.39.27-.65.63-.93.98-.79,1.06-1.49,2.18-2.22,3.28-1.92,2.94-3.94,5.81-6.03,8.63-.9,1.25-1.89,2.45-2.66,3.79-.09.15-.22.45-.28.63h0Z"/>
    <path class="cls-4" d="m14.66,51.57c.33,2.5.48,4.74,1.01,7.13.33,1.48.77,2.66,1.22,4.24-4.11-1.87-5.11-8.05-2.23-11.37h0Z"/>
    <path class="cls-4" d="m64.37,45.47c.33,2.5.48,4.74,1.01,7.13.33,1.48.77,2.66,1.22,4.24-4.11-1.87-5.11-8.05-2.23-11.37h0Z"/>
    <g>
      <line class="cls-11" x1="15.16" y1="36.26" x2="17.5" y2="40.33"/>
      <rect x="15.82" y="35.94" width="1.02" height="4.7" transform="translate(-16.89 13.21) rotate(-29.85)"/>
    </g>
    <rect x="20.97" y="34.15" width="1.02" height="4.7"/>
  </g>
</svg>