<?xml version="1.0" encoding="UTF-8"?>
<svg id="logo" xmlns="http://www.w3.org/2000/svg" viewBox="0 0 1199.76 788.21">
  <defs>
    <style>
      .cls-1 {
        stroke: #392947;
      }

      .cls-1, .cls-2 {
        fill: #392947;
      }

      .cls-1, .cls-3, .cls-4, .cls-5, .cls-6, .cls-7 {
        stroke-miterlimit: 10;
      }

      .cls-1, .cls-7 {
        stroke-width: 6px;
      }

      .cls-8, .cls-6 {
        fill: #fff;
      }

      .cls-3, .cls-6 {
        stroke: #000;
      }

      .cls-9, .cls-5 {
        fill: #3faf3f;
      }

      .cls-10, .cls-7 {
        fill: #7c5f9b;
      }

      .cls-11 {
        opacity: .29;
      }

      .cls-12 {
        fill: #5e4a77;
      }

      .cls-13 {
        opacity: .19;
      }

      .cls-4 {
        fill: #309930;
        stroke: #309930;
      }

      .cls-4, .cls-5 {
        stroke-linecap: round;
        stroke-width: 9px;
      }

      .cls-14 {
        opacity: .1;
      }

      .cls-15 {
        opacity: .12;
      }

      .cls-5 {
        stroke: #3faf3f;
      }

      .cls-16 {
        fill: #163816;
      }

      .cls-6 {
        stroke-width: 3px;
      }

      .cls-17 {
        fill: #564270;
      }

      .cls-18 {
        opacity: .17;
      }

      .cls-7 {
        stroke: #564270;
      }
    </style>
  </defs>
  <g>
    <path class="cls-4" d="m906.21,57.68c-.11-.34-.2-.52-.2-.52,0,0,.08.19.2.52Z"/>
    <path class="cls-4" d="m906.21,57.68c1.25,3.94,4.08,29.37-123.53,44.5-107.37,12.73-172.71,125.65-196.72,175.92C458.56,41.96,373.12,90.93,346.23,59.61c-26.8-31.2-98.69,41.27-104.52,47.25,3.07-2.77,25.05-15.87,91.6,94.07,72.28,119.41,267.69,106,267.69,106-1.02-2.02-2.03-4.01-3.04-5.99,277.9-16.56,267.93-116.88,308.05-128.56,39.49-11.49,3.24-106.92.2-114.71Z"/>
    <path class="cls-4" d="m241.32,107.26s.14-.15.39-.4c-.26.24-.39.4-.39.4Z"/>
  </g>
  <g>
    <path class="cls-5" d="m1046.63,48.54c-.11-.34-.2-.52-.2-.52,0,0,.08.19.2.52Z"/>
    <path class="cls-5" d="m1046.63,48.54c1.25,3.94,4.08,29.37-123.53,44.5-107.37,12.73-172.71,125.65-196.72,175.92-127.39-236.14-212.83-187.17-239.72-218.49-26.8-31.2-98.69,41.27-104.52,47.25,3.07-2.77,25.05-15.87,91.6,94.07,72.28,119.41,267.69,106,267.69,106-1.02-2.02-2.03-4.01-3.04-5.99,277.9-16.56,267.93-116.88,308.05-128.56,39.49-11.49,3.24-106.92.2-114.71Z"/>
    <path class="cls-5" d="m381.74,98.12s.14-.15.39-.4c-.26.24-.39.4-.39.4Z"/>
  </g>
  <g class="cls-18">
    <path class="cls-9" d="m461.06,85.07s189.23,192.37,217.41,181.61"/>
    <path class="cls-16" d="m461.06,85.07c43.33,40.14,86.97,82.08,131.13,121.3,13.33,11.85,26.82,23.52,40.75,34.65,9.29,7.36,18.73,14.64,28.97,20.61,2.56,1.47,5.2,2.84,7.95,3.9,2.72,1.01,5.72,1.99,8.62,1.14-2.84,1.11-6.02.36-8.86-.43-2.89-.87-5.65-2.08-8.35-3.39-26.53-13.92-49.37-33.77-72.18-52.93-44.97-39.17-87.72-80.89-128.01-124.86h0Z"/>
  </g>
  <path class="cls-7" d="m961.95,823.01s121.73-41.34,84.98-186.04c0,0,157.71-110.25,82.68-206.71-75.03-96.47-137.81-52.83-137.81-52.83,0,0,1.53-81.92-96.47-96.47-98-14.55-126.32,27.56-126.32,27.56,0,0-95.7-49-149.29-16.08,0,0-103.36-60.48-137.81,0l-10.15,3.28c-37.38,12.09-78.16,4.21-108.82-20.36-41.85-33.53-109.53-61.06-172.73,30.86,0,0-62.01-6.12-80.39,32.16,0,0-153.88,137.04,0,215.9,0,0-134.74,122.5,4.59,236.57"/>
  <g>
    <path class="cls-10" d="m69.2,746.99c0-73.11,61.64-132.38,137.68-132.38s137.68,59.27,137.68,132.38"/>
    <path class="cls-17" d="m69.2,746.99c-2.89-75.69,63.64-136.05,137.68-135.38,54.2-.5,107.59,32.66,128.21,83.25,6.84,16.52,10.15,34.44,9.47,52.13-1.08-35.23-16.97-69.21-42.91-92.8-85-77.68-227.47-24.55-232.45,92.8h0Z"/>
  </g>
  <g>
    <ellipse class="cls-10" cx="296.9" cy="597.3" rx="100.61" ry="96.74"/>
    <path class="cls-17" d="m397.51,597.3c.54,39.41-26.09,76.12-62.4,90.5-64.95,26.81-141.6-18.36-141.82-90.5.2-72.16,76.86-117.33,141.82-90.51,36.31,14.39,62.94,51.1,62.4,90.51h0Zm0,0c.27-54.18-47.48-96.54-100.61-95.23-51.74.15-98.11,42.61-97.61,95.23-.5,52.64,45.86,95.11,97.61,95.25,53.13,1.3,100.88-41.07,100.61-95.25h0Z"/>
  </g>
  <g>
    <ellipse class="cls-10" cx="132.74" cy="577.54" rx="137.68" ry="132.38"/>
    <path class="cls-17" d="m270.42,577.54c.72,53.89-35.78,104.07-85.52,123.52-88.43,36.15-192.57-25.46-192.84-123.53.26-98.08,104.4-159.7,192.84-123.53,49.73,19.46,86.24,69.64,85.51,123.53h0Zm0,0c.63-53.67-36.23-103.6-86.2-121.77C98.21,422.5-1.81,483.06-1.94,577.54c.12,94.5,100.15,155.06,186.16,121.78,49.97-18.17,86.83-68.11,86.2-121.78h0Z"/>
  </g>
  <g>
    <ellipse class="cls-10" cx="150.55" cy="376.15" rx="137.68" ry="132.38"/>
    <path class="cls-17" d="m288.23,376.16c.72,53.89-35.78,104.07-85.52,123.52-88.43,36.15-192.57-25.46-192.84-123.53.26-98.08,104.4-159.7,192.84-123.53,49.73,19.46,86.24,69.64,85.51,123.53h0Zm0,0c.63-53.67-36.23-103.6-86.21-121.77-86-33.27-186.03,27.28-186.16,121.77.12,94.5,100.15,155.06,186.16,121.78,49.97-18.17,86.83-68.11,86.2-121.78h0Z"/>
  </g>
  <g>
    <ellipse class="cls-10" cx="969.42" cy="599.74" rx="137.68" ry="132.38"/>
    <path class="cls-17" d="m1107.1,599.74c.72,53.89-35.78,104.07-85.52,123.53-88.43,36.15-192.57-25.46-192.84-123.53.26-98.08,104.4-159.7,192.84-123.53,49.73,19.46,86.24,69.64,85.51,123.53h0Zm0,0c.63-53.67-36.23-103.6-86.2-121.77-86-33.27-186.03,27.28-186.16,121.77.12,94.5,100.15,155.06,186.16,121.78,49.97-18.17,86.83-68.11,86.2-121.78h0Z"/>
  </g>
  <g>
    <ellipse class="cls-10" cx="1054.14" cy="418.68" rx="137.68" ry="132.38"/>
    <path class="cls-17" d="m1191.82,418.68c.72,53.89-35.78,104.07-85.52,123.52-88.43,36.15-192.57-25.46-192.84-123.53.26-98.08,104.4-159.7,192.84-123.53,49.73,19.46,86.24,69.64,85.51,123.53h0Zm0,0c.63-53.67-36.23-103.6-86.21-121.77-86-33.27-186.03,27.28-186.16,121.77.12,94.5,100.15,155.06,186.16,121.78,49.97-18.17,86.83-68.11,86.2-121.78h0Z"/>
  </g>
  <g>
    <ellipse class="cls-10" cx="598.73" cy="662.27" rx="137.68" ry="132.38"/>
    <path class="cls-10" d="m736.41,662.27c.72,53.89-35.78,104.07-85.52,123.53-88.43,36.15-192.57-25.46-192.84-123.53.26-98.08,104.4-159.7,192.84-123.53,49.73,19.46,86.24,69.64,85.51,123.53h0Zm0,0c.63-53.67-36.23-103.6-86.21-121.77-86-33.27-186.03,27.28-186.16,121.77.12,94.5,100.15,155.06,186.16,121.78,49.97-18.17,86.83-68.11,86.2-121.78h0Z"/>
  </g>
  <g>
    <ellipse class="cls-10" cx="344.56" cy="249.23" rx="137.68" ry="132.38"/>
    <path class="cls-12" d="m482.24,249.23c.72,53.89-35.78,104.07-85.52,123.52-88.43,36.15-192.57-25.46-192.84-123.53.26-98.08,104.4-159.7,192.84-123.53,49.73,19.46,86.24,69.64,85.51,123.53h0Zm0,0c.63-53.67-36.23-103.6-86.21-121.77-86-33.27-186.03,27.28-186.16,121.77.12,94.5,100.15,155.06,186.16,121.78,49.97-18.17,86.83-68.11,86.2-121.78h0Z"/>
  </g>
  <g>
    <ellipse class="cls-10" cx="544.67" cy="322.66" rx="137.68" ry="132.38"/>
    <path class="cls-12" d="m682.35,322.66c.72,53.89-35.78,104.07-85.52,123.53-88.43,36.15-192.57-25.46-192.84-123.53.26-98.08,104.4-159.7,192.84-123.53,49.73,19.46,86.24,69.64,85.51,123.53h0Zm0,0c.63-53.67-36.23-103.6-86.21-121.77-86-33.27-186.03,27.28-186.16,121.77.12,94.5,100.15,155.06,186.16,121.78,49.97-18.17,86.83-68.11,86.2-121.78h0Z"/>
  </g>
  <g>
    <ellipse class="cls-10" cx="884.68" cy="312.77" rx="137.68" ry="132.38"/>
    <path class="cls-12" d="m1022.36,312.77c.72,53.89-35.78,104.07-85.52,123.52-88.43,36.15-192.57-25.46-192.84-123.53.26-98.08,104.4-159.7,192.84-123.53,49.73,19.46,86.24,69.64,85.51,123.53h0Zm0,0c.63-53.67-36.23-103.6-86.21-121.77-86-33.27-186.03,27.28-186.16,121.77.12,94.5,100.15,155.06,186.16,121.78,49.97-18.17,86.83-68.11,86.2-121.78h0Z"/>
  </g>
  <g>
    <ellipse class="cls-10" cx="672.87" cy="365.73" rx="137.68" ry="132.38" transform="translate(-88.29 450.28) rotate(-34.86)"/>
    <path class="cls-12" d="m559.9,444.43c-31.4-43.8-30.13-105.85-.44-150.24,51.9-80.21,172.56-89.19,228.84-8.88,55.85,80.62,5.63,190.71-87.61,211.6-51.93,12.46-110.57-7.85-140.78-52.48h0Zm0,0c30.16,44.39,88.95,64.3,140.34,50.63,89.58-21.86,137.04-128.73,83.13-206.33-54.12-77.47-170.81-69.98-222.36,6.5-30.61,43.48-32.31,105.52-1.11,149.2h0Z"/>
  </g>
  <g class="cls-15">
    <path class="cls-8" d="m1064.94,273.06c44.56-3.84,108.32,19.58,111.18,71.26.31,8.92-1.38,17.9-4.96,26.05-.22-6.99-.58-13.73-1.96-20.13-9.38-47.24-64.17-62.87-104.25-77.18h0Z"/>
  </g>
  <g class="cls-14">
    <path class="cls-8" d="m980,710.51c-44.39,3.82-108.9-17.19-122.5-64.34-1.86-6.84-2.46-14-1.52-20.97,2.06,6.44,4.53,12.61,7.88,18.36,22.71,38.42,76.01,52.7,116.13,66.95h0Z"/>
  </g>
  <path class="cls-6" d="m697.04,661.23c3.11,33.73,11.01,64.51,21.93,89.33,0,0,11.02-10.84,33.04-10.61-8.35-51.22,19.44-85.57,19.44-85.57-51.69-51.07-14.48-157.18-14.48-157.18-41.09,3.78-67.92,77.22-59.93,164.03Z"/>
  <path class="cls-3" d="m752.01,739.95c30.32-3.56,57.96,9.6,80.07,26.46,12.41-30.15,18.04-72.62,13.78-118.89-8-86.81-47.79-154.11-88.88-150.32,0,0-37.22,106.11,14.48,157.18,0,0-27.79,34.35-19.44,85.57Z"/>
  <path class="cls-6" d="m412.24,690.01c3.11,33.73,11.01,64.51,21.93,89.33,0,0,11.02-10.84,33.04-10.61-8.35-51.22,19.44-85.57,19.44-85.57-51.69-51.07-14.48-157.18-14.48-157.18-41.09,3.78-67.92,77.22-59.93,164.03Z"/>
  <path class="cls-3" d="m467.21,768.73c30.32-3.56,57.96,9.6,80.07,26.46,12.41-30.15,18.04-72.62,13.78-118.89-8-86.81-47.79-154.11-88.88-150.32,0,0-37.22,106.11,14.48,157.18,0,0-27.79,34.35-19.44,85.57Z"/>
  <path id="eyelid" class="cls-1" d="m567.38,541.87c-53.43,74.78-119.88,43.14-158.42,13.54-13.25-10.18-6.95-31.36,9.7-32.73l131.48-10.85c16.15-1.33,26.65,16.85,17.23,30.04Z"/>
  <path id="eyelid-2" data-name="eyelid" class="cls-1" d="m833.26,517.79c-53.43,74.78-119.88,43.14-158.42,13.54-13.25-10.18-6.95-31.36,9.7-32.73l131.48-10.85c16.15-1.33,26.65,16.85,17.23,30.04Z"/>
  <g class="cls-11">
    <path class="cls-2" d="m734.69,777.78c14.63-16.96,42.12-25.08,61.55-11.48,6.27,4.42,11.16,10.33,14.31,16.93-9.83-8.83-20.62-15.95-33.81-16.73-14.72-.93-28.8,4.72-42.05,11.27h0Z"/>
  </g>
  <g class="cls-13">
    <path class="cls-8" d="m524.6,625.2c23.06,31.87,27.87,81.04,10.59,116.5,1.29-10.04,2.36-19.84,2.71-29.64,1.11-29.5-4.06-58.86-13.3-86.86h0Z"/>
  </g>
  <g class="cls-13">
    <path class="cls-8" d="m807.3,604.02c23.06,31.87,27.87,81.04,10.59,116.5,1.29-10.04,2.36-19.84,2.71-29.64,1.11-29.49-4.06-58.86-13.3-86.86h0Z"/>
  </g>
  <g class="cls-13">
    <path class="cls-2" d="m37.43,508.7c-.97,41.89-7.7,98.76,17.86,133.92,3.93,5.38,8.69,10.03,13.91,14.35-6.74-1.7-13.21-5.01-18.83-9.54-37.17-30.63-32.08-99.23-12.94-138.73h0Z"/>
  </g>
  <g class="cls-13">
    <path class="cls-2" d="m60.02,295.94c-7.65,41.19-23.39,96.26-3.78,135.06,3.02,5.94,6.97,11.29,11.44,16.39-6.38-2.75-12.24-7.06-17.07-12.42-31.79-36.18-15.8-103.08,9.41-139.02h0Z"/>
  </g>
  <g class="cls-13">
    <path class="cls-2" d="m90.38,678.15c24.36,16.3,54.29,13.62,81.58,7.16,9.72-2.22,19.22-4.97,29.05-6.93-3.67,3.65-7.72,6.81-11.98,9.73-21.62,14.46-50.56,21.57-75.51,11.15-9.7-4.25-18.91-11.2-23.14-21.11h0Z"/>
  </g>
  <g class="cls-13">
    <path class="cls-2" d="m122.15,492.82c27.23,2.57,53.53-3.73,79.19-12.37,7.93-2.59,18.73-6.61,26.71-8.81-3.05,3.82-6.53,7.18-10.23,10.36-18.78,15.58-43.85,24.51-68.41,21.57-9.72-1.32-19.74-4.23-27.27-10.75h0Z"/>
  </g>
  <g class="cls-13">
    <path class="cls-2" d="m303.82,140.29c-25.35,33.36-64.16,75.48-64.08,118.95.03,6.66,1.16,13.22,2.85,19.78-4.46-5.33-7.76-11.81-9.66-18.77-12.17-46.54,32.25-99.24,70.89-119.96h0Z"/>
  </g>
  <g class="cls-15">
    <path class="cls-9" d="m1032.22,79.46s-189.23,192.37-217.41,181.61"/>
    <path class="cls-16" d="m1032.22,79.46c-40.28,43.97-83.04,85.7-128.01,124.86-22.82,19.15-45.65,39.01-72.18,52.93-2.7,1.3-5.47,2.51-8.35,3.39-2.84.79-6.02,1.53-8.86.43,2.9.85,5.9-.14,8.62-1.14,2.75-1.06,5.38-2.43,7.95-3.9,10.24-5.97,19.68-13.25,28.97-20.61,13.93-11.14,27.42-22.8,40.75-34.65,44.16-39.22,87.8-81.16,131.13-121.3h0Z"/>
  </g>
</svg>