<?xml version="1.0" encoding="UTF-8"?>
<svg id="logo" xmlns="http://www.w3.org/2000/svg" viewBox="0 0 1134.83 746.64">
  <defs>
    <style>
      .cls-1 {
        opacity: .13;
      }

      .cls-2, .cls-3, .cls-4, .cls-5 {
        fill: #fff;
      }

      .cls-3, .cls-6 {
        opacity: .12;
      }

      .cls-7, .cls-8, .cls-9, .cls-10, .cls-11, .cls-4, .cls-12 {
        stroke-miterlimit: 10;
      }

      .cls-7, .cls-4 {
        stroke: #000;
      }

      .cls-13, .cls-11 {
        fill: #3faf3f;
      }

      .cls-8 {
        fill: none;
        stroke: #1a591e;
        stroke-width: 14px;
      }

      .cls-9 {
        fill: #f79443;
        stroke: #ef6100;
        stroke-width: 4px;
      }

      .cls-14 {
        opacity: .38;
      }

      .cls-10 {
        fill: #309930;
        stroke: #309930;
      }

      .cls-10, .cls-11 {
        stroke-width: 9px;
      }

      .cls-10, .cls-11, .cls-12 {
        stroke-linecap: round;
      }

      .cls-15 {
        fill: #1a591e;
      }

      .cls-11 {
        stroke: #3faf3f;
      }

      .cls-16 {
        opacity: .43;
      }

      .cls-17 {
        fill: #163816;
      }

      .cls-4 {
        stroke-width: 3px;
      }

      .cls-18 {
        fill: #f9d2e4;
      }

      .cls-12 {
        fill: #d35500;
        opacity: .25;
        stroke: #ff6700;
      }

      .cls-5 {
        opacity: .36;
      }

      .cls-19 {
        opacity: .17;
      }
    </style>
  </defs>
  <g>
    <path class="cls-10" d="m773.31,55.99c-.09-.28-.17-.43-.17-.43,0,0,.06.16.17.43Z"/>
    <path class="cls-10" d="m773.31,55.99c1.06,3.28,3.47,24.43-104.98,37.02-91.24,10.59-146.77,104.53-167.17,146.35C392.9,42.92,320.3,83.65,297.44,57.6c-22.77-25.96-83.87,34.33-88.83,39.3,2.61-2.3,21.29-13.2,77.84,78.26,61.43,99.34,227.48,88.19,227.48,88.19-.86-1.68-1.73-3.34-2.59-4.98,236.16-13.78,227.69-97.24,261.78-106.95,33.56-9.56,2.75-88.95.17-95.43Z"/>
    <path class="cls-10" d="m208.29,97.24s.12-.12.33-.33c-.22.2-.33.33-.33.33Z"/>
  </g>
  <g>
    <path class="cls-11" d="m892.64,48.39c-.09-.28-.17-.43-.17-.43,0,0,.06.16.17.43Z"/>
    <path class="cls-11" d="m892.64,48.39c1.06,3.28,3.47,24.43-104.98,37.02-91.24,10.59-146.77,104.53-167.17,146.35-108.26-196.45-180.86-155.71-203.72-181.76-22.77-25.96-83.87,34.33-88.83,39.3,2.61-2.3,21.29-13.2,77.84,78.26,61.43,99.34,227.48,88.19,227.48,88.19-.86-1.68-1.73-3.34-2.59-4.98,236.16-13.78,227.69-97.24,261.78-106.95,33.56-9.56,2.75-88.95.17-95.43Z"/>
    <path class="cls-11" d="m327.62,89.64s.12-.12.33-.33c-.22.2-.33.33-.33.33Z"/>
  </g>
  <g class="cls-6">
    <path class="cls-13" d="m880.39,74.11s-160.81,160.04-184.75,151.08"/>
    <path class="cls-17" d="m880.39,74.11c-34.05,36.95-70.43,71.75-108.7,104.31-19.43,15.91-38.91,32.38-61.47,43.75-4.49,1.89-9.64,4.57-14.58,3.02,2.45.68,4.96-.14,7.25-.99,2.32-.89,4.53-2.03,6.7-3.26,8.64-4.99,16.62-11.07,24.48-17.21,11.79-9.3,23.23-19.02,34.55-28.9,37.52-32.67,74.67-67.57,111.78-100.71h0Z"/>
  </g>
  <g class="cls-19">
    <path class="cls-13" d="m411.8,90.83s160.81,160.04,184.75,151.08"/>
    <path class="cls-17" d="m411.8,90.83c37.11,33.14,74.27,68.04,111.78,100.71,11.31,9.88,22.76,19.6,34.55,28.9,7.86,6.14,15.84,12.22,24.48,17.21,2.16,1.23,4.38,2.37,6.7,3.26,2.3.85,4.8,1.67,7.25.99-4.94,1.55-10.1-1.14-14.58-3.02-22.56-11.36-42.04-27.84-61.47-43.75-38.27-32.56-74.65-67.36-108.7-104.31h0Z"/>
  </g>
  <path class="cls-9" d="m11.28,781.75s189.18,2.26,575.09,1.88c388.55-.39,540.91-16.64,540.91-16.64-5.34-141.59,92.91-537.04-465.62-565.27,0,0-762.63,17.25-650.38,580.03Z"/>
  <g class="cls-1">
    <path class="cls-18" d="m606.25,196.68c-30.51,78.1-64,154.79-85.73,235.73-12.88,49-21.56,99.98-16.33,150.6.08,1.33.32,3.2.52,4.53.58,4.38,1.18,9.21,2,13.51,1.01,5.87,2.26,12.07,3.76,17.82,3.25,13.24,7.92,26.67,13.36,39.18,15.57,35.13,38.49,65.5,64.95,93.49,8.54,9.25,17.6,18.19,26.57,27.07,1.29,1.34,2.61,2.65,3.89,4.03-3-.47-7.83-1.71-10.9-2.36-29.47-7.02-57.22-19.79-82.37-36.96-2.7-1.82-6.72-4.91-9.39-6.92-2.67-1.9-6.61-5.16-9.14-7.38-21.4-17.83-39.45-40.44-53.16-64.91-15.66-28.68-25.25-60.65-28.93-93.1-10.61-100.27,29.24-200.36,87.71-279.98,26.58-35.45,56.82-68.74,93.17-94.35h0Z"/>
  </g>
  <path class="cls-3" d="m1045.55,526.52l-262.11-258.92c-18.33-18.11.71-51.81,22.45-39.71,90.98,50.64,211.21,138.21,271.42,269.29,10.65,23.19-14.5,46.39-31.76,29.34Z"/>
  <ellipse class="cls-12" cx="951.01" cy="729.53" rx="37.89" ry="37.09"/>
  <ellipse class="cls-12" cx="487.68" cy="335.88" rx="43.9" ry="42.98"/>
  <ellipse class="cls-12" cx="711.29" cy="278.73" rx="43.9" ry="42.98"/>
  <ellipse class="cls-12" cx="558.16" cy="731.29" rx="43.9" ry="42.98"/>
  <g id="glasses">
    <path class="cls-4" d="m678.24,545.71c4.27,45.41,18.42,86.55,39.03,119.46,0,0,22.95-15.3,67.46-16.26-13.84-68.75,44.43-116.8,44.43-116.8-101.52-66.01-19.91-211.6-19.91-211.6-83.35,7.51-142,108.35-131.01,225.21Z"/>
    <path class="cls-7" d="m784.73,648.91c61.55-6.59,116.66,9.6,160.38,31.09,26.9-41.48,40.82-99.21,34.96-161.5-10.99-116.86-87.47-205.51-170.82-197.99,0,0-81.61,145.59,19.91,211.6,0,0-58.27,48.05-44.43,116.8Z"/>
    <path class="cls-4" d="m94.56,586.8c4.11,43.73,17.74,83.33,37.58,115.02,0,0,22.09-14.73,64.95-15.66-13.33-66.19,42.78-112.46,42.78-112.46-97.74-63.56-19.17-203.74-19.17-203.74-80.25,7.24-136.72,104.32-126.14,216.84Z"/>
    <path class="cls-7" d="m197.09,686.16c59.26-6.34,112.32,9.24,154.42,29.93,25.9-39.94,39.3-95.52,33.66-155.49-10.59-112.52-84.22-197.87-164.47-190.63,0,0-78.58,140.18,19.17,203.74,0,0-56.1,46.26-42.78,112.46Z"/>
    <ellipse class="cls-5" cx="277.3" cy="518.08" rx="249.68" ry="244.43"/>
    <ellipse class="cls-5" cx="876.69" cy="518.08" rx="249.68" ry="244.43"/>
    <line class="cls-8" x1="526.99" y1="518.08" x2="627.01" y2="518.08"/>
    <path class="cls-15" d="m527.89,518.08c.91,99.52-62.69,192.51-153.83,231.31C205.95,822.7,12.09,704.09,11.43,518.08c1.19-186.38,193.96-304.27,362.61-231.26,91.13,38.78,154.77,131.74,153.85,231.26h0Zm-1.8,0c1.06-97.73-63.87-189.92-154.55-225.03C211.86,228.39,29.23,343.32,29.42,518.08c-.16,174.76,182.43,289.69,342.11,225.03,90.67-35.12,155.62-127.29,154.55-225.03h0Z"/>
    <path class="cls-15" d="m1127.27,518.08c.91,99.52-62.69,192.51-153.83,231.31-168.11,73.32-361.97-45.3-362.62-231.31,1.19-186.38,193.96-304.27,362.61-231.26,91.13,38.78,154.77,131.74,153.85,231.26h0Zm-1.8,0c1.06-97.73-63.87-189.92-154.55-225.03-159.67-64.66-342.3,50.28-342.11,225.03-.16,174.76,182.43,289.69,342.11,225.03,90.67-35.12,155.62-127.29,154.55-225.03h0Z"/>
    <g class="cls-16">
      <path class="cls-2" d="m285.1,371.95c38.21,68.05,70.85,193.27,27.63,264.23-7.08,11.36-16.47,21.32-27.63,28.02,8.47-9.55,15.08-20.34,19.76-32.05,28-71.66-3.46-185.8-19.76-260.2h0Z"/>
    </g>
    <g class="cls-16">
      <path class="cls-2" d="m331.36,371.95c29.96,46.33,59.32,137.41,42,191.41-.79,2.35-2.16,5.69-3.29,7.85-.79,1.37-1.69,3.05-2.53,4.38,2.26-17.46-.26-34.18-3.14-51.22-1.44-8.41-3.16-16.8-4.96-25.14-9.05-42.45-21.05-84.28-28.09-127.27h0Z"/>
    </g>
    <g class="cls-16">
      <path class="cls-2" d="m879.81,387.06c38.21,68.05,70.85,193.28,27.63,264.23-7.08,11.36-16.47,21.32-27.63,28.02,8.47-9.55,15.08-20.34,19.76-32.05,28-71.66-3.46-185.8-19.76-260.2h0Z"/>
    </g>
    <g class="cls-16">
      <path class="cls-2" d="m926.07,387.06c29.96,46.33,59.32,137.41,42,191.41-.79,2.35-2.16,5.68-3.29,7.85-.79,1.37-1.69,3.05-2.53,4.38,2.26-17.46-.26-34.18-3.14-51.22-1.44-8.41-3.16-16.8-4.96-25.14-9.05-42.45-21.05-84.28-28.09-127.27h0Z"/>
    </g>
    <g class="cls-14">
      <path class="cls-2" d="m226.06,727.16c52.26,11.75,113.27,13.9,158.22-19.49,0,0,4.69-3.57,4.69-3.57,1.5-1.27,2.94-2.6,4.45-3.88,0,0,2.24-1.94,2.24-1.94,0,0,2.09-2.1,2.09-2.1,0,0,4.26-4.17,4.26-4.17-2.3,3.07-4.78,6.57-7.42,9.38-41.21,46.48-114.23,46.9-168.54,25.77h0Z"/>
    </g>
    <g class="cls-14">
      <path class="cls-2" d="m811.57,727.16c52.26,11.75,113.27,13.9,158.22-19.49,0,0,4.69-3.57,4.69-3.57,1.5-1.27,2.94-2.6,4.45-3.88,0,0,2.24-1.94,2.24-1.94l2.09-2.1s4.26-4.17,4.26-4.17c-2.3,3.07-4.78,6.57-7.42,9.38-41.21,46.48-114.23,46.9-168.54,25.77h0Z"/>
    </g>
  </g>
</svg>