<?xml version="1.0" encoding="UTF-8"?>
<svg id="logo" xmlns="http://www.w3.org/2000/svg" viewBox="0 0 1142.36 743.17">
  <defs>
    <style>
      .cls-1 {
        fill: #ef6100;
      }

      .cls-2, .cls-3, .cls-4, .cls-5, .cls-6 {
        fill: #fff;
      }

      .cls-3, .cls-7 {
        opacity: .12;
      }

      .cls-4 {
        opacity: .38;
      }

      .cls-8 {
        fill: #ff6700;
      }

      .cls-9 {
        fill: #d35500;
      }

      .cls-10 {
        fill: #3faf3f;
      }

      .cls-11 {
        fill: #f79443;
      }

      .cls-12 {
        fill: #309930;
      }

      .cls-5 {
        opacity: .43;
      }

      .cls-13 {
        fill: #1a591e;
      }

      .cls-14 {
        fill: #163816;
      }

      .cls-6 {
        opacity: .36;
      }

      .cls-15 {
        opacity: .17;
      }

      .cls-16 {
        opacity: .25;
      }
    </style>
  </defs>
  <g>
    <g>
      <path class="cls-12" d="m775.31,16.95c-.09-.28-.17-.43-.17-.43,0,0,.06.16.17.43Z"/>
      <path class="cls-12" d="m771.13,18.62l-.17-.42,8.13-3.83c.1.19.31.6.5,1.19l-8.06,2.91,1.36-.74-1.86.6c.04.13.09.22.12.27h-.02Z"/>
    </g>
    <g>
      <path class="cls-12" d="m775.31,16.95c1.06,3.28,3.47,24.43-104.98,37.02-91.24,10.59-146.77,104.53-167.17,146.35C394.9,3.88,322.3,44.61,299.44,18.56c-22.77-25.96-83.87,34.33-88.83,39.3,2.61-2.3,21.29-13.2,77.84,78.26,61.43,99.34,227.48,88.19,227.48,88.19-.86-1.68-1.73-3.34-2.59-4.98,236.16-13.78,227.69-97.24,261.78-106.95,33.56-9.56,2.75-88.95.17-95.43Z"/>
      <path class="cls-12" d="m500.61,229.21c-16.6,0-44.72-1.15-76.23-7.32-29-5.68-54.76-14.46-76.57-26.1-27.48-14.67-48.73-33.95-63.17-57.29-41.44-67.01-61.19-76.62-67.76-77.63-2.38-.37-3.24.35-3.28.38l-6.17-6.55c8-8.02,49.31-47.98,77.94-47.07,7.14.23,13.01,2.91,17.45,7.98,4.95,5.65,13.36,7.73,25,10.63,17.97,4.46,42.58,10.58,72.98,34.27,34.5,26.89,67.96,69.53,102.15,130.22,22.9-44.36,78.44-130.94,166.86-141.2,79.73-9.26,96.7-22.91,100.29-28.35,1.2-1.82.94-2.78.92-2.82l8.46-3.05c4.13,10.4,24.13,63.54,11.67,88.85-3.17,6.44-8.15,10.67-14.79,12.56-7.31,2.08-12.73,8.71-20.22,17.88-11.81,14.45-27.99,34.24-63.79,51.75-41.02,20.06-97.28,32.2-171.82,37.06l2.55,4.95-6.84.46c-.62.04-6.31.4-15.64.4ZM222.25,52.98c16.99,5.9,40.52,33.03,70.04,80.78,30.84,49.88,89.68,70.63,133.61,79.26,36.46,7.16,69,7.39,82.78,7.07l-2.53-4.85,6.95-.41c174.14-10.16,212.92-57.6,236.09-85.95,8.21-10.05,14.7-17.98,24.72-20.84,4.15-1.18,7.15-3.76,9.18-7.88,7.64-15.52-.19-48.17-8.02-70.91-12.4,12.78-47.39,22.59-104.21,29.19-89.42,10.38-144.23,104.06-163.65,143.85l-3.8,7.79-4.18-7.59C419.78,58.34,360.86,43.7,325.66,34.96c-12.73-3.16-22.78-5.66-29.59-13.43-2.77-3.16-6.36-4.77-10.97-4.92-17.59-.57-44.81,19.9-62.84,36.37Z"/>
    </g>
    <g>
      <path class="cls-12" d="m210.29,58.2s.12-.12.33-.33c-.22.2-.33.33-.33.33Z"/>
      <path class="cls-12" d="m213.51,61.35l-6.77-5.91c.17-.21.46-.55.91-.95l5.77,6.16-1.14-.89,1.31,1.49c.1-.08.16-.16.2-.21h.01s-.3.31-.3.31Z"/>
    </g>
  </g>
  <g>
    <g>
      <path class="cls-10" d="m894.64,9.35c-.09-.28-.17-.43-.17-.43,0,0,.06.16.17.43Z"/>
      <path class="cls-10" d="m890.46,11.01l-.16-.39,8.12-3.85c.1.19.31.6.5,1.19l-7.99,2.87,1.29-.7-1.86.6c.04.12.08.21.11.26h-.02Z"/>
    </g>
    <g>
      <path class="cls-10" d="m894.64,9.35c1.06,3.28,3.47,24.43-104.98,37.02-91.24,10.59-146.77,104.53-167.17,146.35C514.24-3.72,441.63,37.01,418.78,10.96c-22.77-25.96-83.87,34.33-88.83,39.3,2.61-2.3,21.29-13.2,77.84,78.26,61.43,99.34,227.48,88.19,227.48,88.19-.86-1.68-1.73-3.34-2.59-4.98,236.16-13.78,227.69-97.24,261.78-106.95,33.56-9.56,2.75-88.95.17-95.43Z"/>
      <path class="cls-10" d="m619.94,221.61c-16.6,0-44.72-1.15-76.23-7.32-29-5.68-54.76-14.46-76.57-26.1-27.48-14.67-48.73-33.95-63.17-57.29-41.44-67.01-61.19-76.62-67.76-77.63-2.37-.37-3.24.35-3.28.38l-6.17-6.55C334.76,39.07,376.11-.89,404.71.02c7.14.23,13.01,2.91,17.45,7.98,4.95,5.65,13.36,7.73,25,10.63,17.97,4.46,42.58,10.58,72.98,34.27,34.5,26.89,67.96,69.53,102.15,130.22,22.9-44.36,78.44-130.94,166.86-141.2,79.73-9.26,96.7-22.91,100.29-28.35,1.2-1.82.94-2.78.92-2.82l8.46-3.05c4.13,10.4,24.13,63.54,11.67,88.85-3.17,6.44-8.15,10.67-14.79,12.56-7.31,2.08-12.73,8.71-20.22,17.88-11.81,14.45-27.99,34.24-63.79,51.75-41.02,20.06-97.28,32.2-171.82,37.06l2.55,4.95-6.84.46c-.62.04-6.31.4-15.64.4ZM341.58,45.38c16.99,5.9,40.52,33.03,70.04,80.78,30.84,49.88,89.68,70.63,133.61,79.26,36.46,7.16,69,7.39,82.78,7.07l-2.53-4.85,6.95-.41c174.14-10.16,212.92-57.6,236.09-85.95,8.21-10.05,14.7-17.98,24.72-20.84,4.15-1.18,7.15-3.76,9.18-7.88,7.64-15.52-.19-48.17-8.02-70.91-12.4,12.78-47.39,22.59-104.21,29.19-89.42,10.38-144.23,104.06-163.65,143.85l-3.8,7.79-4.18-7.59C539.11,50.74,480.19,36.1,444.99,27.36c-12.73-3.16-22.78-5.66-29.59-13.43-2.77-3.16-6.36-4.77-10.97-4.92-17.57-.55-44.81,19.91-62.84,36.37Z"/>
    </g>
    <g>
      <path class="cls-10" d="m329.62,50.6s.12-.12.33-.33c-.22.2-.33.33-.33.33Z"/>
      <path class="cls-10" d="m332.83,53.76l-6.74-5.94c.13-.17.43-.52.89-.92l5.91,6.27-1.21-.95,1.25,1.42c.1-.09.16-.17.2-.21h.01s-.32.33-.32.33Z"/>
    </g>
  </g>
  <g class="cls-7">
    <path class="cls-10" d="m882.39,35.07s-160.81,160.04-184.75,151.08"/>
    <path class="cls-14" d="m882.39,35.07c-34.05,36.95-70.43,71.75-108.7,104.31-19.43,15.91-38.91,32.38-61.47,43.75-4.49,1.89-9.64,4.57-14.58,3.02,2.45.68,4.96-.14,7.25-.99,2.32-.89,4.53-2.03,6.7-3.26,8.64-4.99,16.62-11.07,24.48-17.21,11.79-9.3,23.23-19.02,34.55-28.9,37.52-32.67,74.67-67.57,111.78-100.71h0Z"/>
  </g>
  <g class="cls-15">
    <path class="cls-10" d="m413.8,51.79s160.81,160.04,184.75,151.08"/>
    <path class="cls-14" d="m413.8,51.79c37.11,33.14,74.27,68.04,111.78,100.71,11.31,9.88,22.76,19.6,34.55,28.9,7.86,6.14,15.84,12.22,24.48,17.21,2.16,1.23,4.38,2.37,6.7,3.26,2.3.85,4.8,1.67,7.25.99-4.94,1.55-10.1-1.14-14.58-3.02-22.56-11.36-42.04-27.84-61.47-43.75-38.27-32.56-74.65-67.36-108.7-104.31h0Z"/>
  </g>
  <g>
    <path class="cls-11" d="m5.95,741.41c69.22-37.25,154.21,4.18,232.43-3.56,60.22-5.95,119.78-41.36,177.82-24.27,18.61,5.48,36.55,16.33,55.87,14.49,18.3-1.74,33.32-14.45,49.37-23.4,29.45-16.43,65.49-20.62,97.93-11.39,41.35,11.77,85.25,43.85,122.4,22.23,8.92-5.19,16.21-13.16,25.8-16.96,33.12-13.11,62.35,28.66,97.42,34.88,38.66,6.87,73.49-30.91,112.66-28.27,49.94,3.36,125.61,49.91,149.56-19.36,31.49-91.12,2.06-244.1-42.9-325.32-82.28-148.65-263.71-189.86-420.66-197.8,0,0-762.63,17.25-650.38,580.03"/>
    <path class="cls-1" d="m6.9,743.17l-1.9-3.52c1.7-.91,3.41-1.78,5.13-2.61-25.99-137.12-1.72-253.37,72.18-345.57,40.57-50.62,96.4-94.24,165.94-129.68,55.57-28.31,119.98-51.49,191.43-68.88,121.61-29.6,222.9-32.2,223.91-32.23h.07s.07,0,.07,0c213.16,10.77,355.25,77.67,422.31,198.82,22.92,41.4,41.27,99.58,50.35,159.62,9.92,65.58,7.32,125-7.3,167.32-18.26,52.82-66.28,40.36-108.65,29.36-15.42-4-29.99-7.78-42.93-8.66-18.21-1.23-35.93,6.73-53.08,14.43-19.17,8.61-38.99,17.51-59.8,13.81-14.63-2.6-28.15-11.14-41.22-19.4-18.72-11.83-36.39-23-55.11-15.59-5.46,2.16-10.12,5.72-15.05,9.49-3.33,2.55-6.77,5.18-10.48,7.34-27.81,16.19-59.29,3.2-89.74-9.36-11.3-4.66-22.98-9.48-34.22-12.68-32.11-9.14-67.25-5.05-96.41,11.21-4.01,2.24-8.04,4.77-11.95,7.21-11.83,7.42-24.06,15.09-38.21,16.43-14.03,1.33-27.35-3.79-40.24-8.75-5.36-2.06-10.91-4.2-16.39-5.81-36.44-10.73-72.9-.62-111.5,10.08-21.41,5.94-43.55,12.08-65.56,14.25-30.49,3.01-62.24-1.42-92.94-5.7-46.76-6.52-91.09-12.7-130.99,5.21.19.99.39,1.99.59,2.98l-3.92.78c-.13-.67-.27-1.34-.4-2-1.34.66-2.69,1.35-4.02,2.07Zm69.81-19.48c22.92,0,46.38,3.27,69.48,6.5,30.48,4.25,61.99,8.65,92,5.68,21.67-2.14,43.64-8.23,64.88-14.13,37.44-10.38,76.16-21.12,113.7-10.07,5.63,1.66,11.26,3.82,16.7,5.91,13.03,5.01,25.34,9.75,38.42,8.5,13.2-1.26,25.03-8.67,36.47-15.84,3.94-2.47,8.02-5.03,12.12-7.32,30.08-16.78,66.33-20.99,99.45-11.56,11.46,3.26,23.25,8.12,34.65,12.83,30.91,12.75,60.1,24.79,86.2,9.6,3.5-2.03,6.84-4.59,10.07-7.06,4.93-3.77,10.03-7.67,16.01-10.03,20.61-8.16,39.99,4.09,58.72,15.93,12.75,8.05,25.92,16.38,39.78,18.85,19.59,3.48,37.99-4.78,57.46-13.52,17.59-7.9,35.78-16.07,54.99-14.77,13.31.9,28.06,4.72,43.67,8.77,42.68,11.08,86.81,22.53,103.86-26.8,30.9-89.4,2.27-242.35-42.76-323.7-66.34-119.85-207.29-186.05-418.94-196.76-3.17.08-103.21,2.95-223.08,32.13-111.72,27.2-264.02,83.49-355.12,197.16C12.48,485.01-11.58,599.83,13.88,735.33c19.91-8.7,41.12-11.64,62.83-11.64Z"/>
  </g>
  <path class="cls-3" d="m1047.55,487.48l-262.11-258.92c-18.33-18.11.71-51.81,22.45-39.71,90.98,50.64,211.21,138.21,271.42,269.29,10.65,23.19-14.5,46.39-31.76,29.34Z"/>
  <g class="cls-16">
    <ellipse class="cls-9" cx="953.01" cy="690.49" rx="37.89" ry="37.09"/>
    <path class="cls-8" d="m953.01,728.08c-21.17,0-38.39-16.86-38.39-37.59s17.22-37.59,38.39-37.59,38.39,16.86,38.39,37.59-17.22,37.59-38.39,37.59Zm0-74.19c-20.62,0-37.39,16.42-37.39,36.59s16.77,36.59,37.39,36.59,37.39-16.42,37.39-36.59-16.77-36.59-37.39-36.59Z"/>
  </g>
  <g class="cls-16">
    <ellipse class="cls-9" cx="489.68" cy="296.85" rx="43.9" ry="42.98"/>
    <path class="cls-8" d="m489.68,340.33c-24.48,0-44.4-19.51-44.4-43.48s19.92-43.48,44.4-43.48,44.4,19.51,44.4,43.48-19.92,43.48-44.4,43.48Zm0-85.96c-23.93,0-43.4,19.06-43.4,42.48s19.47,42.48,43.4,42.48,43.4-19.06,43.4-42.48-19.47-42.48-43.4-42.48Z"/>
  </g>
  <g class="cls-16">
    <ellipse class="cls-9" cx="713.29" cy="239.69" rx="43.9" ry="42.98"/>
    <path class="cls-8" d="m713.29,283.18c-24.48,0-44.4-19.51-44.4-43.48s19.92-43.48,44.4-43.48,44.4,19.51,44.4,43.48-19.92,43.48-44.4,43.48Zm0-85.96c-23.93,0-43.4,19.06-43.4,42.48s19.47,42.48,43.4,42.48,43.4-19.06,43.4-42.48-19.47-42.48-43.4-42.48Z"/>
  </g>
  <g id="glasses">
    <g>
      <path class="cls-2" d="m680.24,506.68c4.27,45.41,18.42,86.55,39.03,119.46,0,0,22.95-15.3,67.46-16.26-13.84-68.75,44.43-116.8,44.43-116.8-101.52-66.01-19.91-211.6-19.91-211.6-83.35,7.51-142,108.35-131.01,225.21Z"/>
      <path d="m718.82,628.24l-.82-1.31c-21.52-34.37-35.09-75.9-39.25-120.11-6.46-68.66,11.31-135.66,47.52-179.23,23.49-28.26,52.83-44.73,84.84-47.61l2.83-.26-1.39,2.48c-.2.36-20.39,36.74-27.96,80.64-10.1,58.57,5.84,101.96,47.38,128.97l1.71,1.11-1.58,1.3c-.14.12-14.58,12.15-27.14,32.34-11.54,18.55-23.82,48.02-16.77,83.01l.35,1.76-1.79.04c-43.57.95-66.43,15.86-66.66,16.01l-1.28.86Zm-37.08-121.7c4.07,43.21,17.2,83.81,38.02,117.53,5.43-3.19,27.23-14.5,65.17-15.66-6.5-35.23,5.89-64.8,17.56-83.52,10.42-16.72,22.11-27.97,26.21-31.66-22.55-15.15-37.66-35.55-44.91-60.66-5.92-20.51-6.64-44.17-2.12-70.31,6.52-37.75,22.25-69.98,26.94-79.01-30.12,3.5-57.73,19.44-80.02,46.26-35.72,42.97-53.23,109.15-46.84,177.03Z"/>
    </g>
    <g>
      <path d="m786.73,609.87c61.55-6.59,116.66,9.6,160.38,31.09,26.9-41.48,40.82-99.21,34.96-161.5-10.99-116.86-87.47-205.51-170.82-197.99,0,0-81.61,145.59,19.91,211.6,0,0-58.27,48.05-44.43,116.8Z"/>
      <path d="m947.29,641.61l-.4-.2c-53.4-26.25-107.26-36.7-160.11-31.04l-.45.05-.09-.45c-7.18-35.67,5.33-65.67,17.09-84.54,11.39-18.28,24.29-29.95,27-32.3-22.95-15.09-38.29-35.55-45.59-60.83-5.88-20.36-6.59-43.87-2.1-69.87,7.64-44.22,27.97-80.84,28.17-81.21l.13-.23.26-.02c83.49-7.52,160.36,81.49,171.36,198.44,5.63,59.82-7.14,118.8-35.04,161.82l-.24.37Zm-132.53-33.73c43.83,0,88.16,10.87,132.18,32.44,27.61-42.8,40.23-101.37,34.64-160.8-10.94-116.28-87.19-204.84-170.01-197.57-1.74,3.18-20.65,38.45-27.94,80.68-7.01,40.58-4.4,96.08,47.81,130.03l.57.37-.53.43c-.15.12-14.67,12.22-27.31,32.53-11.61,18.64-23.95,48.2-17.03,83.34,9.18-.97,18.4-1.45,27.63-1.45Z"/>
    </g>
    <g>
      <path class="cls-2" d="m96.56,547.77c4.11,43.73,17.74,83.33,37.58,115.02,0,0,22.09-14.73,64.95-15.66-13.33-66.19,42.78-112.46,42.78-112.46-97.74-63.56-19.17-203.74-19.17-203.74-80.25,7.24-136.72,104.32-126.14,216.84Z"/>
      <path d="m133.69,664.88l-.82-1.31c-20.72-33.1-33.79-73.09-37.8-115.67h0c-6.22-66.12,10.89-130.65,45.77-172.61,22.63-27.22,50.89-43.08,81.73-45.86l2.83-.26-1.39,2.48c-.2.35-19.63,35.37-26.91,77.63-9.72,56.37,5.62,98.13,45.59,124.12l1.71,1.11-1.58,1.3c-.14.11-14.03,11.7-26.12,31.13-11.1,17.85-22.92,46.21-16.14,79.88l.35,1.76-1.79.04c-41.85.91-63.94,15.26-64.15,15.41l-1.28.85Zm-35.63-117.26c3.91,41.57,16.55,80.64,36.57,113.1,5.31-3.11,26.27-13.93,62.66-15.05-6.24-33.91,5.7-62.37,16.92-80.39,10.12-16.24,21.19-26.88,25.18-30.45-21.69-14.59-36.22-34.23-43.2-58.39-5.71-19.75-6.39-42.54-2.04-67.73,6.26-36.22,21.32-67.17,25.9-76-28.94,3.39-55.48,18.73-76.91,44.5-34.38,41.36-51.24,105.06-45.09,170.41Z"/>
    </g>
    <g>
      <path d="m199.09,647.12c59.26-6.34,112.32,9.24,154.42,29.93,25.9-39.94,39.3-95.52,33.66-155.49-10.59-112.52-84.22-197.87-164.47-190.63,0,0-78.58,140.18,19.17,203.74,0,0-56.1,46.26-42.78,112.46Z"/>
      <path d="m353.69,677.7l-.4-.2c-51.41-25.27-103.27-35.33-154.15-29.89l-.45.05-.09-.45c-6.92-34.35,5.13-63.24,16.46-81.42,10.94-17.56,23.33-28.79,25.98-31.09-22.09-14.53-36.85-34.23-43.88-58.56-5.67-19.61-6.34-42.24-2.02-67.28,7.36-42.58,26.93-77.84,27.13-78.19l.13-.23.26-.02c80.4-7.25,154.42,78.47,165.02,191.09,5.42,57.6-6.88,114.39-33.74,155.81l-.24.37Zm-127.61-32.52c42.2,0,84.88,10.46,127.26,31.23,26.57-41.2,38.72-97.59,33.34-154.8-10.53-111.94-83.92-197.19-163.67-190.21-1.7,3.11-19.88,37.05-26.89,77.67-6.74,39.07-4.23,92.49,46.02,125.17l.57.37-.53.43c-.14.12-14.12,11.76-26.3,31.31-11.17,17.94-23.05,46.39-16.4,80.21,8.83-.93,17.7-1.39,26.58-1.39Z"/>
    </g>
    <ellipse class="cls-6" cx="279.3" cy="479.04" rx="249.68" ry="244.43"/>
    <ellipse class="cls-6" cx="878.69" cy="479.04" rx="249.68" ry="244.43"/>
    <rect class="cls-13" x="528.99" y="472.04" width="100.03" height="14"/>
    <path class="cls-13" d="m529.89,479.04c.91,99.52-62.69,192.51-153.83,231.31C207.95,783.66,14.09,665.05,13.43,479.04c1.19-186.38,193.96-304.27,362.61-231.26,91.13,38.78,154.77,131.74,153.85,231.26h0Zm-1.8,0c1.06-97.73-63.87-189.92-154.55-225.03C213.86,189.35,31.23,304.29,31.42,479.04c-.16,174.76,182.43,289.69,342.11,225.03,90.67-35.12,155.62-127.29,154.55-225.03h0Z"/>
    <path class="cls-13" d="m1129.27,479.04c.91,99.52-62.69,192.51-153.83,231.31-168.11,73.32-361.97-45.3-362.62-231.31,1.19-186.38,193.96-304.27,362.61-231.26,91.13,38.78,154.77,131.74,153.85,231.26h0Zm-1.8,0c1.06-97.73-63.87-189.92-154.55-225.03-159.67-64.66-342.3,50.28-342.11,225.03-.16,174.76,182.43,289.69,342.11,225.03,90.67-35.12,155.62-127.29,154.55-225.03h0Z"/>
    <path class="cls-5" d="m287.1,332.92c38.21,68.05,70.85,193.27,27.63,264.23-7.08,11.36-16.47,21.32-27.63,28.02,8.47-9.55,15.08-20.34,19.76-32.05,28-71.66-3.46-185.8-19.76-260.2h0Z"/>
    <path class="cls-5" d="m333.36,332.92c29.96,46.33,59.32,137.41,42,191.41-.79,2.35-2.16,5.69-3.29,7.85-.79,1.37-1.69,3.05-2.53,4.38,2.26-17.46-.26-34.18-3.14-51.22-1.44-8.41-3.16-16.8-4.96-25.14-9.05-42.45-21.05-84.28-28.09-127.27h0Z"/>
    <path class="cls-5" d="m881.81,348.02c38.21,68.05,70.85,193.28,27.63,264.23-7.08,11.36-16.47,21.32-27.63,28.02,8.47-9.55,15.08-20.34,19.76-32.05,28-71.66-3.46-185.8-19.76-260.2h0Z"/>
    <path class="cls-5" d="m928.07,348.02c29.96,46.33,59.32,137.41,42,191.41-.79,2.35-2.16,5.68-3.29,7.85-.79,1.37-1.69,3.05-2.53,4.38,2.26-17.46-.26-34.18-3.14-51.22-1.44-8.41-3.16-16.8-4.96-25.14-9.05-42.45-21.05-84.28-28.09-127.27h0Z"/>
    <path class="cls-4" d="m228.06,688.12c52.26,11.75,113.27,13.9,158.22-19.49,0,0,4.69-3.57,4.69-3.57,1.5-1.27,2.94-2.6,4.45-3.88l2.24-1.94,2.09-2.1s4.26-4.17,4.26-4.17c-2.3,3.07-4.78,6.57-7.42,9.38-41.21,46.48-114.23,46.9-168.54,25.77h0Z"/>
    <path class="cls-4" d="m813.57,688.12c52.26,11.75,113.27,13.9,158.22-19.49,0,0,4.69-3.57,4.69-3.57,1.5-1.27,2.94-2.6,4.45-3.88,0,0,2.24-1.94,2.24-1.94,0,0,2.09-2.1,2.09-2.1,0,0,4.26-4.17,4.26-4.17-2.3,3.07-4.78,6.57-7.42,9.38-41.21,46.48-114.23,46.9-168.54,25.77h0Z"/>
  </g>
</svg>